<?xml version="1.0" encoding="UTF-8"?>
<svg id="Layer_1" data-name="Layer 1" xmlns="http://www.w3.org/2000/svg" viewBox="0 0 283.46 283.46">
  <defs>
    <style>
      .cls-1 {
        fill: #0a2240;
      }

      .cls-2 {
        fill: #aa182c;
      }
    </style>
  </defs>
  <g>
    <polygon class="cls-1" points="84.46 63.72 84.46 119.03 139.77 118.48 139.77 93.05 115.29 94.82 115.29 70.34 139.77 51.34 139.77 16.02 84.46 63.72"/>
    <path class="cls-1" d="M143.38,16.02l-.03,102.44,55.35,.57V63.71l-55.31-47.68Zm40.53,79.94l-22.43-1.63V54.49s22.43,18.02,22.43,18.02v23.46Z"/>
  </g>
  <g>
    <path class="cls-2" d="M100.84,171.97c2.99,3.88,4.68,3.48,4.68-2.77v-38.37c0-6.39-1.83-8.92-4.68-8.92h-6.75c-1.78,0-2.6,1.99-2.6,6.02v25.9c0,4.32,.92,7.17,2.6,9.36l6.75,8.78Zm-5.26-40.11l3.27,.98v25.67l-3.27-3.27v-23.37Z"/>
    <path class="cls-2" d="M90.46,150.09l-3.72-3.73v-17.15l3.72,1.07v-8.37h-4.54c-1,0-1.47,1.26-1.47,4.57v19.65c0,3.31,.47,5.15,1.47,6.44l4.54,5.9v-8.37Z"/>
    <path class="cls-2" d="M162.03,198.31c5.7-7.41,8.39-14.19,8.39-21.24v-44.76c0-7.54-2.92-10.41-8.39-10.41h-39.32v78.49l18.86,24.52,20.46-26.6Zm-18.7-53.21l13.45-4.03v45l-13.45,13.48v-54.46Z"/>
    <path class="cls-2" d="M181.96,158.82l3.68-3.49v12.3l4.56-5.92v-33.28c0-4.73-.99-6.53-2.98-6.53h-7.38c-3.4,0-5.51,2.72-5.51,9.91v50.53l7.64-9.93v-13.59Zm0-25.35l3.73-1.11v12.57l-3.73,2.44v-13.91Z"/>
    <path class="cls-2" d="M196.4,121.91v13.02l-1.73,.92v-13.95h-3.25v18.26c0,4.54,.84,5.47,2.29,4.26l.44-.37v12.49l2.7-3.51v-11.22l.3-.25c1-.83,1.53-2.49,1.53-5.91v-13.75h-2.28Z"/>
    <path class="cls-2" d="M168.38,200.66l-.52,.68v-.02c-.23,.31-.46,.62-.7,.93l-.81,1.06c7.65,3.23,13.94,7.97,17.3,13.89,9.69,17.07-6.92,38.01-42.07,38.01s-51.76-20.94-42.07-38.01c3.36-5.92,9.65-10.65,17.3-13.89l-.55-.72v-2.47c-10.46,3.6-19.51,9.42-24.66,17.07-14.3,21.21,3.77,49.99,49.99,49.99s64.28-28.78,49.99-49.99c-4.91-7.28-13.35-12.9-23.18-16.54Z"/>
    <path class="cls-2" d="M111.32,215.17c-8.65,12.83,2.28,30.25,30.25,30.25s38.9-17.42,30.25-30.25c-2.05-3.03-5.1-5.59-8.75-7.61l-1.48,1.93c2.32,1.6,4.21,3.51,5.44,5.68,5.86,10.33-4.19,23-25.46,23s-31.32-12.67-25.46-23c1.23-2.17,3.12-4.08,5.44-5.68l-1.48-1.93c-3.65,2.02-6.71,4.57-8.75,7.61Z"/>
  </g>
</svg>