<?xml version="1.0" encoding="utf-8"?>
<!-- Generator: Adobe Illustrator 27.0.0, SVG Export Plug-In . SVG Version: 6.00 Build 0)  -->
<svg version="1.1" id="Layer_1" xmlns="http://www.w3.org/2000/svg" xmlns:xlink="http://www.w3.org/1999/xlink" x="0px" y="0px"
	 viewBox="0 0 128.8 283.5" style="enable-background:new 0 0 128.8 283.5;" xml:space="preserve">
<style type="text/css">
	.st0{fill:#0A2240;}
</style>
<g>
	<g>
		<polygon class="st0" points="-0.3,53.6 -0.3,116.1 62.2,115.5 62.2,86.8 34.5,88.8 34.5,61.1 62.2,39.6 62.2,-0.3 		"/>
		<path class="st0" d="M66.3-0.3l0,115.7l62.5,0.6V53.6L66.3-0.3L66.3-0.3z M112,90l-25.3-1.8v-45L112,63.6V90L112,90z"/>
	</g>
	<g>
		<path class="st0" d="M18.2,175.9c3.4,4.4,5.3,3.9,5.3-3.1v-43.3c0-7.2-2.1-10.1-5.3-10.1h-7.6c-2,0-2.9,2.2-2.9,6.8v29.3
			c0,4.9,1,8.1,2.9,10.6L18.2,175.9z M12.3,130.6l3.7,1.1v29l-3.7-3.7V130.6L12.3,130.6z"/>
		<path class="st0" d="M6.5,151.2L2.3,147v-19.4l4.2,1.2v-9.5H1.4c-1.1,0-1.7,1.4-1.7,5.2v22.2c0,3.7,0.5,5.8,1.7,7.3l5.1,6.7V151.2
			L6.5,151.2z"/>
		<path class="st0" d="M87.3,205.7c6.4-8.4,9.5-16,9.5-24v-50.6c0-8.5-3.3-11.8-9.5-11.8H42.9V208l21.3,27.7L87.3,205.7L87.3,205.7z
			 M66.2,145.6l15.2-4.6v50.8l-15.2,15.2V145.6L66.2,145.6z"/>
		<path class="st0" d="M109.8,161.1l4.2-3.9V171l5.2-6.7v-37.6c0-5.3-1.1-7.4-3.4-7.4h-8.3c-3.8,0-6.2,3.1-6.2,11.2v57.1l8.6-11.2
			L109.8,161.1L109.8,161.1z M109.8,132.4l4.2-1.3v14.2l-4.2,2.8V132.4L109.8,132.4z"/>
		<path class="st0" d="M126.2,119.4v14.7l-2,1v-15.8h-3.7V140c0,5.1,0.9,6.2,2.6,4.8l0.5-0.4v14.1l3.1-4v-12.7l0.3-0.3
			c1.1-0.9,1.7-2.8,1.7-6.7v-15.5L126.2,119.4L126.2,119.4z"/>
		<path class="st0" d="M94.5,208.3l-0.6,0.8v0c-0.3,0.4-0.5,0.7-0.8,1.1l-0.9,1.2c8.6,3.6,15.7,9,19.5,15.7
			c10.9,19.3-7.8,42.9-47.5,42.9S5.8,246.3,16.7,227c3.8-6.7,10.9-12,19.5-15.7l-0.6-0.8v-2.8c-11.8,4.1-22,10.6-27.9,19.3
			c-16.2,24,4.3,56.5,56.5,56.5s72.6-32.5,56.5-56.5C115.2,218.8,105.6,212.4,94.5,208.3L94.5,208.3z"/>
		<path class="st0" d="M30,224.7c-9.8,14.5,2.6,34.2,34.2,34.2s43.9-19.7,34.2-34.2c-2.3-3.4-5.8-6.3-9.9-8.6l-1.7,2.2
			c2.6,1.8,4.8,4,6.1,6.4c6.6,11.7-4.7,26-28.8,26s-35.4-14.3-28.8-26c1.4-2.5,3.5-4.6,6.1-6.4l-1.7-2.2
			C35.8,218.4,32.3,221.3,30,224.7z"/>
	</g>
</g>
</svg>
